<?xml version="1.0" encoding="UTF-8" standalone="no"?>
<!-- Created with Inkscape (http://www.inkscape.org/) -->

<svg
   width="82.462715mm"
   height="98.507683mm"
   viewBox="0 0 82.462715 98.507683"
   version="1.1"
   id="svg5"
   xml:space="preserve"
   inkscape:version="1.2 (dc2aeda, 2022-05-15)"
   sodipodi:docname="wyvern.svg"
   xmlns:inkscape="http://www.inkscape.org/namespaces/inkscape"
   xmlns:sodipodi="http://sodipodi.sourceforge.net/DTD/sodipodi-0.dtd"
   xmlns="http://www.w3.org/2000/svg"
   xmlns:svg="http://www.w3.org/2000/svg"><sodipodi:namedview
     id="namedview7"
     pagecolor="#505050"
     bordercolor="#eeeeee"
     borderopacity="1"
     inkscape:showpageshadow="0"
     inkscape:pageopacity="0"
     inkscape:pagecheckerboard="0"
     inkscape:deskcolor="#505050"
     inkscape:document-units="mm"
     showgrid="false"
     inkscape:zoom="0.56250359"
     inkscape:cx="244.44288"
     inkscape:cy="181.33218"
     inkscape:window-width="1280"
     inkscape:window-height="690"
     inkscape:window-x="0"
     inkscape:window-y="25"
     inkscape:window-maximized="1"
     inkscape:current-layer="layer1" /><defs
     id="defs2" /><g
     inkscape:label="Layer 1"
     inkscape:groupmode="layer"
     id="layer1"
     transform="translate(-26.531663,-18.919259)"><path
       id="path360"
       style="fill:#ffffff;fill-opacity:1;stroke-width:0.0529167"
       d="m 78.353874,18.919259 -51.69917,52.054187 c -0.524401,2.535945 0.685307,3.800222 2.529044,4.281909 l 40.746867,-8.901782 c 10.041341,2.346383 15.670094,7.341618 16.016594,16.853751 -0.03915,10.115645 -6.722762,15.309695 -18.141012,16.996376 -11.15101,0.0962 -21.745308,-4.795397 -33.318037,-14.820413 -0.83163,-0.01447 -1.817674,0.377564 -2.281857,1.281707 1.731631,17.826846 13.41502,28.117016 35.192684,30.761946 C 93.144315,114.3911 106.98004,100.3105 108.99438,76.933805 107.80957,53.138555 94.951555,38.721139 69.383362,36.261353 Z M 53.999288,52.130668 c 2.48678,3.811634 2.537444,7.305728 -0.583427,10.385929 -4.132673,3.474849 -7.500387,3.201794 -10.415385,0.710035 z"
       sodipodi:nodetypes="cccccccccccccccc" /></g></svg>
